<svg xmlns="http://www.w3.org/2000/svg" viewBox="0 0 32 32">
  <defs>
    <linearGradient id="leafGrad" x1="0%" y1="0%" x2="100%" y2="100%">
      <stop offset="0%" style="stop-color:#4CAF50"/>
      <stop offset="100%" style="stop-color:#2E7D32"/>
    </linearGradient>
  </defs>
  <circle cx="16" cy="16" r="15" fill="url(#leafGrad)"/>
  <path d="M16 6c-5 0-9 4-9 9 0 3 1.5 5.5 4 7 0-3 1-6 3-8 2-2 5-3 8-3-1 3-2 6-4 8-2 2-5 3-8 3 1.5 1.5 3.5 2 6 2 5 0 9-4 9-9s-4-9-9-9z" fill="white" opacity="0.9"/>
</svg>
